<svg width="47" height="46" viewBox="0 0 47 46" fill="none" xmlns="http://www.w3.org/2000/svg">
<g clip-path="url(#clip0_67_5396)">
<path d="M27.9176 35.7949C30.3064 37.3334 32.6568 38.8334 34.9818 40.3334C36.3358 41.2052 36.8468 42.641 36.3358 44.0257C35.646 45.8975 33.4233 46.5898 31.7499 45.4103C29.4761 43.8205 27.215 42.1923 24.954 40.5769C24.4302 40.2052 23.9065 39.8462 23.3955 39.4616C23.14 39.2693 22.974 39.2949 22.7313 39.4744C19.9976 41.4359 17.2511 43.3975 14.4919 45.3334C12.8568 46.4872 10.7618 45.9744 9.94426 44.2436C9.28 42.8462 9.73988 41.2564 11.0812 40.3846C13.0229 39.1154 14.9773 37.8718 16.919 36.6282C17.3278 36.359 17.7493 36.0898 18.1964 35.8077C18.0559 35.6923 17.9409 35.6026 17.826 35.5257C15.5649 33.9103 13.2911 32.3077 11.0428 30.6795C10.7746 30.4872 10.583 30.4744 10.2764 30.6154C5.25612 32.9231 0.0059137 28.718 0.0570106 24.077C0.0825591 21.3975 1.99869 19.1026 4.66851 18.577C8.32194 17.859 12.1798 20.2308 13.125 23.8205C13.3167 24.5385 13.3167 25.3077 13.3678 26.0513C13.3805 26.3205 13.4316 26.4872 13.6616 26.6411C16.7018 28.5898 19.7421 30.5385 22.7696 32.5C22.9868 32.641 23.14 32.641 23.37 32.5C26.3975 30.5385 29.4377 28.5898 32.478 26.6411C32.7207 26.4872 32.7718 26.3205 32.759 26.0513C32.5419 21.2949 36.5785 18.4616 40.0914 18.4616C44.5113 18.4487 47.245 22.5257 45.5716 26.6282C44.1792 30.0257 39.9509 32.5641 35.761 30.5769C35.6332 30.5128 35.4161 30.5 35.2883 30.5769C34.9562 30.7693 34.6624 31.0128 34.343 31.2308C32.2097 32.7308 30.0892 34.2436 27.9176 35.7949ZM5.99703 20C3.31444 20 1.35998 22 1.61547 24.577C1.98592 28.1667 6.23974 31.1667 9.98259 29C10.5447 28.6795 10.9407 28.718 11.4516 29.0769C15.9865 32.3205 20.5213 35.5513 25.069 38.7821C27.5344 40.5385 30.0126 42.3077 32.4908 44.0641C33.1934 44.5641 33.9598 44.5385 34.4963 44.0128C35.25 43.2821 35.0584 42.2052 34.062 41.5641C26.8957 36.9487 19.7293 32.3334 12.5374 27.7564C11.8859 27.3462 11.5921 26.8975 11.8221 26.1539C11.8604 26.0257 11.8476 25.8718 11.8604 25.718C11.9115 22.6026 9.24168 20 5.99703 20ZM24.4941 33.5898C25.069 33.9616 25.6055 34.2693 26.1037 34.6411C26.423 34.8718 26.6274 34.8334 26.934 34.6154C29.5527 32.7308 32.1842 30.8718 34.8157 28.9872C35.1989 28.718 35.5438 28.6411 35.9526 28.8975C39.4272 31.0257 43.1062 28.718 44.192 25.8975C45.1756 23.3205 43.9237 20.8077 41.3305 20.1282C38.137 19.3077 33.7043 22.0128 34.3686 26.3718C34.458 26.9359 34.2919 27.2949 33.7938 27.6026C31.2006 29.2436 28.633 30.9103 26.0526 32.5769C25.5416 32.9103 25.0306 33.2436 24.4941 33.5898ZM21.7349 38.2949C21.0451 37.8077 20.3808 37.3205 19.7165 36.8718C19.6271 36.8077 19.41 36.8462 19.3078 36.9231C16.8168 38.5128 14.3386 40.1154 11.8604 41.7051C11.4644 41.9616 11.2217 42.3334 11.1961 42.8077C11.145 43.3975 11.375 43.8846 11.8859 44.1795C12.4608 44.5257 13.0484 44.4744 13.5977 44.0898C14.9518 43.1282 16.3058 42.1667 17.6599 41.2051C18.9884 40.2564 20.3425 39.2949 21.7349 38.2949Z" fill="#ADACAC"/>
<path d="M31.4561 26.295C30.9452 26.1924 30.4853 26.0899 29.9871 25.9873C30.1276 25.2693 30.2554 24.577 30.3959 23.8591C25.5033 23.8591 20.6364 23.8591 15.7438 23.8591C15.8716 24.5642 16.0121 25.2565 16.1526 26.0001C15.6544 26.1027 15.1818 26.1924 14.658 26.295C14.3898 24.9617 14.1343 23.6796 13.8788 22.3975C13.4317 20.1796 12.9846 17.9745 12.5631 15.7565C12.4992 15.4488 12.397 15.3334 12.0904 15.2822C8.44975 14.7437 5.84381 11.4104 6.21426 7.83344C6.61026 4.03857 9.82937 1.28216 13.5978 1.55139C14.8241 1.64113 15.961 2.03857 16.9829 2.7437C17.0979 2.82062 17.2129 2.91037 17.3406 2.98729C20.1509 -0.987071 25.9504 -0.999892 28.7863 2.98729C29.6294 2.3719 30.5492 1.91037 31.5711 1.69242C35.3267 0.859083 39.1207 3.33344 39.8233 7.07703C40.5642 11.0258 37.9838 14.7181 34.0749 15.2822C33.7427 15.3334 33.6405 15.4616 33.5767 15.7822C32.9252 19.1155 32.2609 22.436 31.5967 25.7565C31.5583 25.9232 31.5072 26.077 31.4561 26.295ZM15.4117 22.2693C16.4209 22.2693 17.3789 22.2693 18.337 22.2693C18.1198 20.7693 17.9155 19.295 17.7111 17.8078C18.2348 17.7309 18.7202 17.6668 19.2184 17.5899C19.4484 19.1924 19.6783 20.7309 19.8955 22.2822C20.713 22.2822 21.4922 22.2822 22.3098 22.2822C22.3098 19.4617 22.3098 16.6668 22.3098 13.8719C22.8335 13.8719 23.3062 13.8719 23.8299 13.8719C23.8299 16.6924 23.8299 19.4873 23.8299 22.2822C24.6603 22.2822 25.4267 22.2822 26.2187 22.2822C26.4486 20.7181 26.6658 19.1668 26.8957 17.577C27.4195 17.654 27.9049 17.7309 28.4031 17.8078C28.1859 19.3206 27.9816 20.795 27.7772 22.2822C28.7608 22.2822 29.7188 22.2822 30.6897 22.2822C30.728 22.0899 30.7791 21.9104 30.8174 21.7181C31.2773 19.3975 31.7372 17.077 32.2098 14.7565C32.3631 13.9873 32.5164 13.8719 33.2956 13.8334C36.0038 13.7052 38.252 11.4616 38.3798 8.75652C38.482 6.50011 37.2556 4.47447 35.2245 3.55139C33.219 2.64113 30.9324 3.05139 29.2845 4.61549C28.6458 5.21806 28.2115 5.14113 27.7772 4.38472C26.7297 2.53857 25.1457 1.56421 23.0507 1.56421C20.9685 1.56421 19.3973 2.55139 18.3626 4.3719C17.9155 5.15395 17.4939 5.21806 16.8169 4.60267C15.3862 3.26934 13.7127 2.76934 11.8221 3.2437C9.29285 3.85908 7.6322 6.12831 7.74717 8.7437C7.84936 11.2565 9.75272 13.3975 12.2948 13.7565C13.9043 13.9873 13.7127 13.7822 14.0704 15.5386C14.5175 17.7822 14.9518 20.0258 15.4117 22.2693Z" fill="#ADACAC"/>
<path d="M44.7793 30.3848C45.1242 30.7566 45.4436 31.1027 45.8013 31.5002C44.8432 32.3976 43.7829 33.0771 42.5949 33.5643C40.5127 34.4232 38.3667 34.5514 36.1695 34.0386C35.9779 33.9873 35.6968 34.0386 35.5308 34.154C34.5855 34.795 33.653 35.4745 32.6949 36.154C32.4011 35.7309 32.1201 35.3463 31.8135 34.9232C32.0945 34.7181 32.35 34.513 32.6183 34.3207C33.4486 33.7309 34.2661 33.1155 35.122 32.5643C35.3519 32.4104 35.7352 32.3207 36.0034 32.3976C39.2225 33.3207 42.084 32.6796 44.6132 30.513C44.6516 30.4617 44.7027 30.436 44.7793 30.3848Z" fill="#ADACAC"/>
<path d="M5.10308 11.2821C4.65598 11.436 4.20888 11.6027 3.76178 11.7565C2.30552 8.42317 3.27636 2.92317 7.59405 0.141113C7.86231 0.538549 8.13057 0.948806 8.4116 1.35906C5.11585 3.92317 3.99172 7.1924 5.10308 11.2821Z" fill="#ADACAC"/>
<path d="M5.60093 15.0771C5.20493 14.5258 4.84725 14.0258 4.43848 13.4746C4.89835 13.2053 5.30712 12.9617 5.75422 12.7053C6.08635 13.154 6.40571 13.6028 6.73784 14.0643C6.38016 14.3848 6.02248 14.7053 5.60093 15.0771Z" fill="#ADACAC"/>
</g>
<defs>
<clipPath id="clip0_67_5396">
<rect width="46" height="46" fill="white" transform="translate(0.0571289)"/>
</clipPath>
</defs>
</svg>
