<svg width="54" height="46" viewBox="0 0 54 46" fill="none" xmlns="http://www.w3.org/2000/svg">
<g clip-path="url(#clip0_67_5397)">
<path d="M-9.76529e-05 36.499C0.0280274 36.4433 0.0842774 36.3876 0.0983399 36.3179C0.703028 33.8104 2.60147 32.3198 5.23115 32.3198C17.2405 32.3198 29.2358 32.3198 41.2452 32.3198C43.5796 32.3198 45.914 32.3198 48.2624 32.3198C48.4312 32.3198 48.5999 32.3198 48.8812 32.3198C48.6562 32.0829 48.5155 31.9436 48.3749 31.7904C40.7671 24.2816 33.1593 16.7728 25.5515 9.27797C24.9608 8.69287 24.8624 8.23315 25.2421 7.85701C25.6218 7.48088 26.0718 7.56446 26.6765 8.16349C35.2405 16.6196 43.8187 25.0617 52.3687 33.5178C53.128 34.2701 53.6905 35.1756 53.9015 36.2622C53.9155 36.3458 53.9718 36.4155 53.9999 36.4851C53.9999 38.2683 53.9999 40.0375 53.9999 41.8067C53.9577 41.9182 53.9015 42.0296 53.8734 42.1411C53.3109 44.3979 51.3562 45.986 49.0359 45.986C34.3405 46 19.6452 45.986 4.9499 45.986C2.8124 45.986 0.913965 44.6069 0.238965 42.5869C0.15459 42.3222 0.0702149 42.0714 -0.0141602 41.8067C-9.76529e-05 40.0514 -9.76529e-05 38.2822 -9.76529e-05 36.499ZM39.8812 44.4397C39.8812 40.9012 39.8812 37.4185 39.8812 33.894C39.628 33.894 39.403 33.894 39.178 33.894C29.6015 33.894 20.0249 33.894 10.4483 33.894C8.69053 33.894 6.93272 33.88 5.1749 33.894C3.02334 33.9079 1.5749 35.3567 1.56084 37.4742C1.56084 38.533 1.56084 39.5917 1.56084 40.6644C1.56084 43.0605 2.96709 44.4397 5.3999 44.4397C16.678 44.4397 27.9562 44.4397 39.2343 44.4397C39.4452 44.4397 39.6421 44.4397 39.8812 44.4397ZM41.5546 44.4258C44.1421 44.4258 46.6734 44.4815 49.2046 44.4118C51.0187 44.3561 52.3827 42.8655 52.4249 41.0405C52.453 39.8982 52.4249 38.7419 52.4249 37.5996C52.4249 35.3149 50.9905 33.894 48.6702 33.894C46.4765 33.894 44.2827 33.894 42.089 33.894C41.9202 33.894 41.7515 33.9079 41.5546 33.9218C41.5546 37.4324 41.5546 40.9012 41.5546 44.4258Z" fill="#ADACAC"/>
<path d="M15.3703 3.00904C15.3703 2.74435 15.3844 2.47967 15.3703 2.22891C15.2859 1.30947 15.7219 0.682573 16.4953 0.278576C17.325 -0.139353 18.1969 -0.111491 18.8578 0.529333C20.5875 2.15925 22.2609 3.8449 23.9484 5.53054C24.2859 5.86489 24.2438 6.35247 23.9203 6.64502C23.5828 6.93757 23.1328 6.90971 22.7531 6.53357C21.2344 5.05689 19.7438 3.56628 18.225 2.07567C18.1125 1.96422 18.0141 1.81098 17.8734 1.76919C17.6766 1.69953 17.4094 1.62988 17.2547 1.69953C17.1 1.76919 16.9734 2.04781 16.9734 2.22891C16.9734 4.84793 17.325 7.42515 17.9719 9.97452C18.9141 13.6662 20.4469 17.0932 22.5703 20.2695C22.95 20.8407 23.0484 20.8685 23.5969 20.4645C24.4266 19.8516 25.4391 19.8794 26.1984 20.576C26.775 21.1053 27.3375 21.6626 27.8859 22.2338C28.3219 22.6935 28.5047 23.2507 28.3922 23.8637C28.2656 24.5602 28.1391 25.2707 27.9844 25.9672C27.9 26.3295 27.9844 26.5802 28.2516 26.8449C29.3625 27.9176 30.4453 29.0042 31.5422 30.0908C31.8516 30.3834 32.0063 30.7177 31.8234 31.1217C31.6125 31.5954 30.9938 31.7486 30.5859 31.3585C29.2922 30.1047 28.0125 28.837 26.7609 27.5414C26.2828 27.0539 26.2828 26.3991 26.4094 25.7583C26.5078 25.215 26.5922 24.6577 26.7469 24.1284C26.8734 23.6547 26.8172 23.3064 26.4234 22.9721C26.0297 22.6517 25.6922 22.2755 25.3406 21.9133C25.0594 21.6069 24.8063 21.5511 24.4406 21.8437C23.3859 22.6517 22.1344 22.4427 21.3891 21.3282C18.4219 16.9679 16.5375 12.1895 15.75 7.00722C15.5531 5.68378 15.4688 4.34641 15.3281 3.00904C15.3422 3.00904 15.3563 3.00904 15.3703 3.00904Z" fill="#ADACAC"/>
<path d="M10.3358 42.9769C8.84516 42.9769 7.35454 42.9908 5.86391 42.9769C4.41547 42.963 3.19204 41.8485 3.07954 40.4275C3.03735 39.8424 3.30454 39.4384 3.79672 39.4106C4.23266 39.3688 4.5561 39.6335 4.65454 40.0793C4.85141 41.1241 5.20297 41.4166 6.29985 41.4166C9.19672 41.4166 12.0936 41.4166 14.9905 41.4166C15.6092 41.4166 15.9889 41.7788 15.9327 42.2803C15.8905 42.7122 15.553 42.9769 15.0467 42.9769C13.4577 42.9769 11.8967 42.9769 10.3358 42.9769Z" fill="#ADACAC"/>
<path d="M46.8845 36.3737C48.4736 36.3876 49.7111 37.6274 49.697 39.2016C49.6829 40.748 48.4314 41.96 46.8704 41.96C45.2954 41.96 44.0017 40.6922 44.0157 39.1459C44.0157 37.6135 45.3095 36.3597 46.8845 36.3737ZM48.1079 39.1459C48.0939 38.4633 47.5454 37.9478 46.8423 37.9478C46.1532 37.9618 45.6189 38.5051 45.6329 39.1877C45.647 39.8703 46.1954 40.3858 46.8986 40.3718C47.5876 40.3718 48.1079 39.8285 48.1079 39.1459Z" fill="#ADACAC"/>
</g>
<defs>
<clipPath id="clip0_67_5397">
<rect width="54" height="46" fill="white"/>
</clipPath>
</defs>
</svg>
