<svg width="43" height="46" viewBox="0 0 43 46" fill="none" xmlns="http://www.w3.org/2000/svg">
<g clip-path="url(#clip0_67_5395)">
<path d="M41.5888 0C41.9372 0.227604 42.0334 0.551042 42.0454 0.958333C42.2497 8.45729 40.1588 15.3094 36.2175 21.6464C34.5953 24.2578 32.6486 26.6057 30.4737 28.774C27.5177 31.7208 24.5737 34.6557 21.6176 37.6026C21.0288 38.1896 20.7765 38.1896 20.1997 37.6146C17.8445 35.2667 15.4893 32.9187 13.1341 30.5589C13.014 30.4391 12.9178 30.3073 12.7977 30.1516C12.6535 30.2833 12.5453 30.3552 12.4612 30.451C9.02453 33.8651 5.59988 37.2911 2.16321 40.7052C1.61046 41.2562 1.29803 41.8911 1.35812 42.6698C1.44223 43.8437 2.42757 44.6943 3.60517 44.6583C4.75874 44.6224 5.70803 43.712 5.70803 42.562C5.70803 41.6995 6.02045 41.0286 6.6453 40.4177C8.79622 38.3094 10.9231 36.1651 13.062 34.0448C13.1581 33.949 13.2543 33.8411 13.3624 33.7693C13.6628 33.5536 13.9632 33.5776 14.2156 33.8292C14.4799 34.0807 14.492 34.3802 14.2997 34.6797C14.2156 34.7995 14.1074 34.9073 13.9993 35.0151C11.8364 37.1713 9.67341 39.3396 7.49846 41.4838C7.21007 41.7713 7.0899 42.0828 7.07789 42.4781C7.05386 44.1193 6.00843 45.4729 4.45833 45.8802C2.95629 46.2755 1.32207 45.6286 0.516974 44.3229C-0.28812 43.0052 -0.119891 41.1964 0.961578 40.0224C1.59844 39.3276 2.28337 38.6807 2.95629 38.0099C15.5013 25.4797 28.0704 12.9615 40.6275 0.443229C40.7837 0.2875 40.9639 0.14375 41.1322 0C41.2884 0 41.4326 0 41.5888 0ZM20.9207 36.3687C21.0048 36.2849 21.0889 36.225 21.161 36.1411C24.0449 33.2661 26.9409 30.3911 29.8248 27.5042C33.0332 24.2818 35.6167 20.6042 37.5032 16.4594C39.4619 12.1349 40.5794 7.59479 40.7236 2.83906C40.7236 2.68333 40.7236 2.5276 40.7236 2.2401C40.1709 2.80312 39.7142 3.24635 39.2816 3.71354C39.1975 3.80937 39.1735 3.97708 39.1615 4.12083C38.9933 5.36667 38.8971 6.62448 38.6568 7.85833C37.4071 14.5187 34.427 20.3286 29.8128 25.276C27.1211 28.163 24.2612 30.8823 21.4855 33.6734C21.3893 33.7693 21.2692 33.8891 21.161 33.8891C20.9207 33.8771 20.6083 33.8771 20.4761 33.7333C20.3319 33.5776 20.3079 33.2542 20.3319 33.0146C20.3439 32.8708 20.5362 32.7271 20.6563 32.6073C22.9394 30.3313 25.2225 28.0552 27.5056 25.7792C32.6967 20.5922 36.1093 14.4708 37.4071 7.22344C37.5152 6.63646 37.5753 6.04948 37.6594 5.51042C29.7046 13.4406 21.7498 21.3589 13.819 29.2771C16.1382 31.5891 18.5174 33.9609 20.9207 36.3687Z" fill="#ADACAC"/>
</g>
<defs>
<clipPath id="clip0_67_5395">
<rect width="42.0571" height="46" fill="white"/>
</clipPath>
</defs>
</svg>
