<svg xmlns="http://www.w3.org/2000/svg" width="24" height="24" fill="none"><path fill="#fff" d="M11.968 2c.334.066.68.112 1.009.204 1.89.547 3.086 1.881 3.214 3.563 0 .03.012.062.018.123h2.661c.498 0 .742.184.79.598.164 1.533.322 3.072.48 4.605l.583 5.48c.098.895.225 1.789.274 2.683.049.92-.468 1.626-1.337 2.152-.686.415-1.47.583-2.315.583-3.038-.005-6.082 0-9.12 0-.954 0-1.901.026-2.855-.01-1.203-.041-2.194-.46-2.892-1.309-.48-.582-.529-1.237-.444-1.922.176-1.415.31-2.836.456-4.257.146-1.396.297-2.786.443-4.182.134-1.237.262-2.474.39-3.71.005-.057.005-.118.017-.174.061-.358.298-.537.736-.542.814-.005 1.622 0 2.436 0h.28c.036-.609.176-1.17.498-1.692.765-1.212 1.95-1.927 3.554-2.152.067-.01.134-.026.2-.041h.924ZM6.81 7.01H4.616c-.006.04-.018.07-.018.107-.182 1.748-.37 3.501-.553 5.25-.237 2.279-.474 4.564-.717 6.843-.042.42.122.767.45 1.069.51.46 1.166.618 1.89.618 3.888.005 7.783.005 11.671 0a3.28 3.28 0 0 0 1.258-.225c.638-.26 1.197-.817 1.087-1.533-.066-.43-.097-.869-.14-1.303-.157-1.534-.321-3.072-.48-4.606l-.546-5.188c-.037-.343-.08-.685-.116-1.022h-2.199v.189c0 .495.006.991-.006 1.482-.006.312-.298.542-.656.537-.347-.005-.626-.23-.644-.532-.006-.102 0-.21 0-.312V7.02H8.122v.127c0 .506.006 1.017 0 1.524-.006.327-.292.562-.656.557-.359 0-.632-.235-.644-.547-.006-.097 0-.194 0-.292-.012-.46-.012-.915-.012-1.38Zm8.08-1.13c-.085-1.069-.637-1.887-1.731-2.403-1.185-.557-2.382-.516-3.518.108-.966.531-1.458 1.313-1.519 2.295h6.769Z"/></svg>